<svg version="1.1" xmlns="http://www.w3.org/2000/svg" xmlns:xlink="http://www.w3.org/1999/xlink" viewBox="0 0 623.6 623.6">
	<style type="text/css">
		.st0{fill:#FBC547;}
		.st1{fill-opacity:0.45;}
		.st2{fill:#FFFFFF;}
		.st3{fill:#8ED6FB;}
		.st4{fill:#1C78C0;}
	</style>
	<path class="st0" d="M538.6,623.6H85c-46.8,0-85-38.3-85-85V50C0,22.5,22.5,0,50,0h488.5c46.8,0,85,38.3,85,85v453.5
			C623.6,585.3,585.3,623.6,538.6,623.6z"/>
	<g>
		<polygon class="st1" points="49.8,140.3 312.6,87.8 312.6,127.2 49.8,166.6 		"/>
		<polygon class="st2" points="312.6,87.8 575.4,140.3 575.4,166.6 312.6,127.2 		"/>
		<polygon class="st1" points="49.8,190.3 49.8,432 108.9,438.6 108.9,287.5 168,396.6 229.8,287.5 229.8,457 299.4,466.2
			299.4,156.1 224.6,166.6 168,275.7 111.5,183.7 		"/>
		<polygon class="st2" points="575.4,190.3 575.4,432 516.3,438.6 516.3,287.5 457.1,396.6 395.4,287.5 395.4,457 325.7,466.2
			325.7,156.1 400.6,166.6 457.1,275.7 513.6,183.7 		"/>
		<polygon class="st1" points="49.8,482 312.6,534.5 312.6,495.1 49.8,455.7 		"/>
		<polygon class="st2" points="312.6,534.5 575.4,482 575.4,455.7 312.6,495.1 		"/>
		<path class="st3" d="M410,483.1l-93.3,52.7v-41l58.1-31.9L410,483.1z M416.4,477.4V367.1l-34.2,19.7v70.8L416.4,477.4z
			 M215.1,483.1l93.3,52.7v-41l-58.2-31.9L215.1,483.1z M208.8,477.4V367.1l34.2,19.7v70.8L208.8,477.4z M212.7,359.9l95.7-54v39.7
			L247,379.2l-0.5,0.3L212.7,359.9z M412.3,359.9l-95.7-54v39.7l61.4,33.6l0.5,0.3L412.3,359.9z"/>
		<path class="st4" d="M308.4,485.8l-57-31.5v-62.4l57,33.1V485.8L308.4,485.8z M316.5,485.8l57-31.5v-62.4l-57,33.1V485.8z
			 M255.2,384.7l57.3-31.7l57.3,31.7L312.5,418L255.2,384.7z"/>
	</g>
</svg>
