<svg version="1.1" xmlns="http://www.w3.org/2000/svg" xmlns:xlink="http://www.w3.org/1999/xlink" viewBox="0 0 403.1 340">
	<style type="text/css">
		.st0{fill-opacity:0.45;}
		.st1{fill:#FFFFFF;}
		.st2{fill:#8ED6FB;}
		.st3{fill:#1C78C0;}
	</style>
	<g>
		<g>
			<polygon class="st0" points="0,40 200,0 200,30 0,60 		"/>
			<polygon class="st1" points="200,0 400,40 400,60 200,30 		"/>
			<polygon class="st0" points="0,78 0,262 45,267 45,152 90,235 137,152 137,281 190,288 190,52 133,60 90,143 47,73 		"/>
			<polygon class="st1" points="400,78 400,262 355,267 355,152 310,235 263,152 263,281 210,288 210,52 267,60 310,143 353,73 		"/>
			<polygon class="st0" points="0,300 200,340 200,310 0,280 		"/>
			<polygon class="st1" points="200,340 400,300 400,280 200,310 		"/>
			<path class="st2" d="M274.1,300.9l-71,40.1v-31.2l44.2-24.3L274.1,300.9z M279,296.5v-83.9l-26,15v53.9L279,296.5z M125.8,300.9
				l71,40.1v-31.2l-44.3-24.3L125.8,300.9z M121,296.5v-83.9l26,15v53.9L121,296.5z M124,207.1l72.8-41.1v30.2l-46.7,25.6l-0.4,0.2
				L124,207.1z M275.9,207.1L203.1,166v30.2l46.7,25.6l0.4,0.2L275.9,207.1z"/>
			<path class="st3" d="M196.8,302.9l-43.4-24v-47.5l43.4,25.2V302.9z M203,302.9l43.4-24v-47.5L203,256.6V302.9z M156.3,226
				l43.6-24.1l43.6,24.1l-43.6,25.3L156.3,226z"/>
		</g>
	</g>
</svg>
